<?xml version="1.0" encoding="utf-8"?>
<!-- Generator: Adobe Illustrator 22.1.0, SVG Export Plug-In . SVG Version: 6.00 Build 0)  -->
<svg version="1.1" id="Ebene_1" xmlns="http://www.w3.org/2000/svg" xmlns:xlink="http://www.w3.org/1999/xlink" x="0px" y="0px"
	 viewBox="0 0 688 734" style="enable-background:new 0 0 688 734;" xml:space="preserve">
<style type="text/css">
	.st0{fill:#008BBC;}
	.st1{fill:#009FE3;}
	.st2{fill:#F2F2F7;}
	.st3{fill:#F9F9F9;}
	.st4{fill:#AFAFAF;}
	.st5{fill:#CCCCCC;}
	.st6{fill:#5E5E5E;}
	.st7{fill:#DDDDDD;}
	.st8{fill:#EAEAEA;}
	.st9{fill:#FF7E69;}
	.st10{fill:#F25549;}
</style>
<title>Element 1</title>
<g id="Ebene_2_1_">
	<g id="Ebene_1-2">
		<g id="Ebene_2-2">
			<polygon class="st0" points="238,733.8 660,490 664,460 238,703 			"/>
			<polygon class="st1" points="107.2,722 77,692 238,703 238,734 			"/>
			<polygon class="st2" points="664,460 688,332 238,602 238,703 			"/>
			<polygon class="st3" points="77,692 0,609 238,602 238,703 			"/>
			<polygon class="st4" points="238,584 676,323 688,332 238,601 			"/>
			<polygon class="st5" points="0,609 238,601 238,584 29,592 			"/>
			<polygon class="st6" points="675.7,323 488,215 87,446 29,592 238,584 			"/>
			<polygon class="st7" points="29,592 96,467 475.8,245.6 476,222 87,446 			"/>
			<polygon class="st5" points="0,609 29,592 87,446 488,215 475,207 75,438 			"/>
			<polygon class="st2" points="437,443 438,13 415,26 416,455 			"/>
			<polygon class="st3" points="388,439 416,455 415,26 388,14 			"/>
			<polygon class="st5" points="438,13 413,0 388,14 415,26 			"/>
			<polygon class="st8" points="664,330 476,222 476,279.4 613.5,358.7 			"/>
			<polygon class="st4" points="676,324 490,215 476,223 664,331 			"/>
			<path class="st9" d="M401,20c0,0-216.3,4.1-338,267C7,408,0,609,0,609s300.3-165,397-165C399,444,300,171.7,401,20z"/>
			<polygon class="st10" points="438,13 649,277 437,394 			"/>
		</g>
	</g>
</g>
</svg>
